HIERARCHY
ROOT hip
{
	OFFSET 0.000000 0.000000 0.000000 
	CHANNELS 6 Xposition Yposition Zposition Xrotation Zrotation Yrotation
	JOINT abdomen
	{
		OFFSET 0.000000 3.402643 0.000000 
		CHANNELS 3 Xrotation Zrotation Yrotation
		JOINT chest
		{
			OFFSET 0.000000 8.438565 -0.680529 
			CHANNELS 3 Xrotation Zrotation Yrotation
			JOINT neck
			{
				OFFSET 0.000000 10.207942 -0.272212 
				CHANNELS 3 Xrotation Zrotation Yrotation
				JOINT head
				{
					OFFSET 0.000000 3.130431 0.000000 
					CHANNELS 3 Xrotation Zrotation Yrotation
					End Site
					{
						OFFSET 0.000000 3.130435 0.000000 
					}
				}
			}
			JOINT lCollar
			{
				OFFSET 3.470700 6.669187 -0.816635 
				CHANNELS 3 Yrotation Zrotation Xrotation
				JOINT lShldr
				{
					OFFSET 3.198488 0.000000 0.000000 
					CHANNELS 3 Zrotation Yrotation Xrotation
					JOINT lForeArm
					{
						OFFSET 10.139888 0.000000 0.000000 
						CHANNELS 3 Yrotation Zrotation Xrotation
						JOINT lHand
						{
							OFFSET 8.370511 0.000000 0.000000 
							CHANNELS 3 Zrotation Yrotation Xrotation
							End Site
							{
								OFFSET 4.083176 0.000000 0.000000 
							}
						}
					}
				}
			}
			JOINT rCollar
			{
				OFFSET -3.470700 6.669187 -0.816635 
				CHANNELS 3 Yrotation Zrotation Xrotation
				JOINT rShldr
				{
					OFFSET -3.198488 0.000000 0.000000 
					CHANNELS 3 Zrotation Yrotation Xrotation
					JOINT rForeArm
					{
						OFFSET -10.139888 0.000000 0.000000 
						CHANNELS 3 Yrotation Zrotation Xrotation
						JOINT rHand
						{
							OFFSET -8.370511 0.000000 0.000000 
							CHANNELS 3 Zrotation Yrotation Xrotation
							End Site
							{
								OFFSET -4.083176 0.000000 0.000000 
							}
						}
					}
				}
			}
		}
	}
	JOINT lThigh
	{
		OFFSET 5.308129 -1.633274 1.361059 
		CHANNELS 3 Xrotation Zrotation Yrotation
		JOINT lShin
		{
			OFFSET -2.041588 -20.007561 0.000000 
			CHANNELS 3 Xrotation Zrotation Yrotation
			JOINT lFoot
			{
				OFFSET 0.000000 -19.190928 -1.224953 
				CHANNELS 3 Xrotation Yrotation Zrotation
				End Site
				{
					OFFSET 0.000000 -2.449906 4.627600 
				}
			}
		}
	}
	JOINT rThigh
	{
		OFFSET -5.308129 -1.633274 1.361059 
		CHANNELS 3 Xrotation Zrotation Yrotation
		JOINT rShin
		{
			OFFSET 2.041588 -20.007561 0.000000 
			CHANNELS 3 Xrotation Zrotation Yrotation
			JOINT rFoot
			{
				OFFSET 0.000000 -19.190928 -1.224953 
				CHANNELS 3 Xrotation Yrotation Zrotation
				End Site
				{
					OFFSET 0.000000 -2.449906 4.627600 
				}
			}
		}
	}
}
MOTION
Frames: 15
Frame Time: 0.033333
-12.030608 50.333145 27.961481 178.412384 -179.179718 0.390585 0.000000 0.000000 0.000000 1.106310 0.712885 0.224713 0.261579 0.214516 -3.164077 12.544605 0.389902 -3.486380 -6.159909 -0.165274 1.621463 -64.776184 -8.806953 17.078382 -44.939713 -11.011084 11.922179 8.970017 10.528670 -3.039360 6.746001 7.403636 1.163142 55.870541 6.087953 15.234648 41.469334 8.974276 15.687338 -12.411696 -14.278497 -2.470937 -0.576402 10.602619 7.908159 3.384758 -0.828632 7.421292 -1.369102 0.209374 -10.930578 -4.930829 -8.982169 -6.510387 15.779337 2.059501 -20.018896 -8.740482 -0.750976 9.175712 
-12.001559 50.344421 27.793926 178.358994 -179.345779 0.888725 0.000000 0.000000 0.000000 1.141168 0.751952 -0.107413 0.259264 0.399674 -3.427787 12.232636 0.389934 -3.408257 -6.459448 0.054128 1.678736 -64.885262 -2.065649 17.118149 -43.485634 -12.136283 8.183295 7.511611 13.710456 -2.962640 6.481116 7.868276 1.174630 56.767799 -0.173062 14.319539 39.180481 9.518349 15.960996 -9.010423 -16.382860 -2.670056 -0.449706 10.688139 7.847857 3.126430 -0.670446 7.171309 -1.334598 0.151034 -11.056906 -4.462611 -8.817327 -6.609152 15.339713 2.157172 -20.520802 -8.731241 -0.747626 9.230759 
-11.983828 50.340714 27.734173 177.990158 -179.287155 0.634717 0.000000 0.000000 0.000000 1.134570 0.644529 0.156350 0.145980 0.516720 -3.300911 11.867149 0.292439 -3.447271 -6.231096 0.268105 1.660102 -65.029823 4.799614 16.672503 -42.585640 -12.655051 5.657283 5.688999 16.601582 -3.022163 6.617187 7.967565 1.164696 58.254669 -6.726008 12.685427 37.355850 9.159850 17.762522 -6.305944 -17.962669 -2.919820 -0.606345 10.665223 7.822581 2.952845 -0.710279 7.481555 -1.342180 0.144315 -11.059776 -4.852867 -8.786923 -6.437691 15.465072 2.097688 -20.452257 -8.879675 -0.757897 9.272625 
-12.002736 50.323559 27.588606 178.036774 -179.043030 0.605547 0.000000 0.000000 0.000000 1.369145 0.478512 0.234448 0.259739 0.419266 -3.203182 11.323513 0.399662 -3.457083 -5.965971 0.175324 1.874566 -64.928558 11.582182 15.843244 -42.188713 -12.518139 5.259370 4.429590 18.826530 -3.107328 6.487819 7.847909 1.418838 59.407368 -12.717398 11.690015 35.717667 8.733582 17.948900 -4.780692 -18.108070 -3.102706 -0.508110 10.333129 7.665908 3.199531 -0.672502 8.076534 -1.536528 0.158197 -11.134647 -4.832976 -9.176619 -6.673423 15.883385 2.184602 -20.103781 -9.266554 -0.788600 9.375607 
-11.950212 50.329201 27.512152 177.361725 -179.277435 0.898489 0.000000 0.000000 0.000000 1.095288 0.644529 0.136820 0.123217 0.409496 -3.252010 10.920916 0.438662 -3.437549 -5.864778 0.105862 1.632044 -64.373016 17.914179 15.395822 -41.585815 -12.300143 5.815768 3.771514 18.379770 -3.215137 6.215547 8.018078 1.165602 59.951637 -18.616461 11.047848 34.741573 8.601951 17.109182 -5.693659 -16.250013 -3.045201 -1.005970 10.659717 7.653919 2.921333 -0.679959 7.483253 -1.532025 0.171792 -11.202543 -5.185238 -8.846300 -6.485248 15.544452 2.205763 -20.619574 -9.230309 -0.807063 9.376593 
-11.931742 50.328129 27.479723 176.637161 -179.453293 1.386749 0.000000 0.000000 0.000000 0.767340 0.810536 -0.292939 0.018521 0.350962 -3.349666 10.589432 0.458259 -3.222709 -5.698495 -0.267682 1.311871 -63.240311 23.441183 15.399887 -41.210209 -12.233953 5.959671 3.879893 16.838755 -3.234372 5.788796 8.084621 0.853268 60.521343 -23.458792 9.757398 32.974655 8.376410 15.198976 -6.696535 -13.899066 -3.041917 -2.362728 10.804529 7.380721 3.922206 -0.615287 7.957152 -1.872898 0.219796 -11.237748 -5.699687 -8.577089 -6.239679 15.340048 2.199058 -21.403978 -9.163692 -0.807148 9.482616 
-11.878439 50.312386 27.396715 176.287964 -179.629074 1.679716 0.000000 0.000000 0.000000 0.569515 0.908179 -0.419869 0.158350 0.302232 -3.300787 10.439287 0.711811 -3.154539 -5.428559 -0.110880 1.166635 -62.533375 28.052485 14.861870 -40.786320 -11.915671 4.611243 3.068203 15.479793 -3.348064 5.332256 7.956563 0.705454 61.492863 -27.824774 8.449118 31.996407 8.192970 12.531319 -8.384543 -12.136481 -2.991927 -2.792043 11.156301 7.472850 4.253741 -0.722080 7.002413 -2.241589 0.256781 -11.341084 -5.904406 -8.264700 -6.037234 15.362986 2.036187 -22.047052 -9.248227 -0.838563 9.642101 
-11.845306 50.324768 27.296268 176.206360 -179.853592 1.796869 0.000000 0.000000 0.000000 0.490266 1.113254 -0.400315 0.365421 0.282782 -3.125010 10.528404 0.877607 -3.115467 -5.208824 0.143103 1.108684 -61.529007 31.392332 15.124773 -39.939758 -11.836268 5.966627 2.627444 13.960256 -3.398558 5.106283 7.696337 0.667194 62.434357 -31.280867 6.523355 30.950319 7.817262 10.416931 -6.783731 -10.952785 -3.163324 -2.548699 11.491380 7.751905 3.865113 -0.811198 6.266407 -2.260025 0.239838 -11.359057 -5.575068 -7.937394 -5.925178 14.831414 1.990767 -22.211145 -9.140266 -0.816411 9.649954 
-11.934121 50.317474 27.159281 176.785019 -179.258118 1.670035 0.000000 0.000000 0.000000 0.895654 0.742182 -0.214826 0.696067 0.136536 -2.958976 10.913286 0.819145 -3.056886 -4.974050 0.069186 1.449602 -60.631870 33.585640 15.786392 -39.127922 -11.814638 8.995499 3.256040 13.581690 -3.353788 5.091482 7.205076 1.067694 62.995319 -33.573128 5.570551 29.745941 7.584751 10.380041 -6.319732 -11.861452 -3.154063 -1.230275 10.657836 7.511658 2.754167 -0.699759 6.709096 -1.864755 0.234041 -11.284320 -5.058201 -8.768595 -6.435544 15.408447 2.088892 -21.442858 -9.589983 -0.860562 9.758836 
-11.848809 50.310738 27.215294 176.261169 -179.755997 1.962873 0.000000 0.000000 0.000000 0.532656 1.044912 -0.244100 0.655051 0.370618 -2.900393 11.037679 0.526664 -2.910213 -4.860126 0.761079 1.157973 -60.012379 34.626740 16.280996 -38.687859 -11.928519 9.549121 3.541226 13.924769 -3.328515 5.104008 7.262129 0.725076 63.148945 -35.232883 4.646279 29.041962 7.235214 11.400772 -5.706748 -11.673287 -3.220774 -2.538330 11.381086 7.658360 4.070252 -0.781198 6.179413 -2.404985 0.271693 -11.382979 -5.466325 -8.013179 -5.936294 15.064917 1.911977 -22.304686 -9.336630 -0.839672 9.794503 
-11.875583 50.317242 27.215300 176.279190 -179.726746 2.070335 0.000000 0.000000 0.000000 0.523463 1.083977 -0.205041 0.648899 0.302354 -2.871105 11.284537 0.643643 -3.007952 -4.706523 0.901729 1.148485 -59.525188 34.801414 16.203526 -38.502586 -11.845630 10.437290 3.311091 14.310237 -3.333907 5.175113 7.048162 0.725006 62.972321 -35.619781 4.508837 28.673065 7.215673 10.947886 -5.896527 -11.745309 -3.204959 -2.597160 11.252826 7.562002 4.043450 -0.730800 6.503804 -2.301070 0.297019 -11.358685 -5.416688 -8.089363 -5.986786 14.989491 1.913759 -22.406713 -9.296990 -0.852861 9.808827 
-11.892826 50.318043 27.216106 176.433350 -179.677963 2.128927 0.000000 0.000000 0.000000 0.601295 1.064445 -0.224571 0.758207 0.273115 -2.783218 11.356184 0.604698 -2.890773 -4.734055 0.769379 1.206844 -59.113407 34.196171 16.048311 -38.661083 -11.815154 10.076750 3.778548 14.694935 -3.285674 5.345024 7.045156 0.773051 62.297718 -35.472061 4.921886 29.338432 7.292263 10.471227 -6.864488 -11.989014 -3.117227 -2.264980 11.194960 7.569595 3.705330 -0.711601 6.187433 -2.196646 0.242326 -11.355764 -5.241924 -8.159443 -6.096850 15.012273 1.938944 -22.313862 -9.325089 -0.850993 9.821285 
-11.925004 50.328281 27.229128 176.771027 -179.580383 2.197278 0.000000 0.000000 0.000000 0.806876 1.025384 -0.205045 0.923006 0.302387 -2.744154 11.359724 0.536431 -2.880916 -4.820474 0.985650 1.401431 -59.366787 32.546444 15.779346 -38.893997 -11.803209 9.078320 4.013702 14.435854 -3.256909 5.459769 7.083277 0.948927 61.695568 -34.321758 5.116648 30.325264 7.303968 9.622013 -6.881483 -11.754736 -3.125427 -1.738318 11.002542 7.534523 3.268921 -0.643533 6.178746 -1.972055 0.236784 -11.329010 -4.860797 -8.343627 -6.298879 14.927558 2.019107 -22.241039 -9.238250 -0.821736 9.811412 
-11.971871 50.317162 27.227316 177.037857 -179.394958 2.148524 0.000000 0.000000 0.000000 0.906390 0.966795 -0.107407 0.938635 0.185346 -2.666002 11.392217 0.468145 -2.910219 -4.856066 0.792590 1.479200 -59.188293 30.470110 15.905926 -39.702190 -11.856596 7.690656 4.425358 13.563153 -3.247861 5.577988 6.976746 1.036751 61.281406 -32.599716 5.677080 31.733366 7.281992 9.602272 -8.280518 -12.099153 -3.000229 -1.552690 10.757318 7.439719 3.494032 -0.606019 6.335323 -2.129261 0.223566 -11.276793 -4.715078 -8.716020 -6.574518 15.248218 2.164561 -21.676945 -9.464230 -0.850415 9.771303 
-11.990133 50.328014 27.331640 176.853897 -179.248688 2.353698 0.000000 0.000000 0.000000 0.721982 0.791015 -0.048823 0.804359 0.331648 -2.753917 11.623598 0.331594 -2.939460 -5.212764 1.529262 1.332704 -59.990322 27.662651 16.187090 -39.949051 -11.946513 7.279648 5.278816 12.817547 -3.190762 5.587794 6.777760 0.899364 61.104820 -30.061592 6.014370 32.452103 7.093922 10.645323 -9.990898 -11.388271 -2.915954 -1.962507 10.403342 7.085582 3.373895 -0.487870 7.279999 -1.708580 0.203302 -11.238392 -5.067363 -8.874189 -6.565472 15.362672 2.104264 -22.048323 -9.341473 -0.828588 9.810821 
